<?xml version="1.0" encoding="utf-8"?>
<!-- Generator: Adobe Illustrator 20.1.0, SVG Export Plug-In . SVG Version: 6.00 Build 0)  -->
<svg version="1.1" id="Layer_1" xmlns="http://www.w3.org/2000/svg" xmlns:xlink="http://www.w3.org/1999/xlink" x="0px" y="0px"
	 width="108px" height="109px" viewBox="0 0 108 109" enable-background="new 0 0 108 109" xml:space="preserve">
<g>
	<path fill="#FFFFFF" d="M70.3,41.2h8.1c1.8,0,3.2-1.4,3.2-3.2v-7.7c0-1.8-1.4-3.2-3.2-3.2h-8.1c-1.8,0-3.2,1.4-3.2,3.2V38
		C67.1,39.8,68.5,41.2,70.3,41.2z"/>
	<ellipse fill="#FFFFFF" cx="54.1" cy="54.7" rx="14.3" ry="13.9"/>
	<path fill="#FFFFFF" d="M0,0.4v108.1c21.2,0,91.9,0,108,0V0.4C91.4,0.4,21.7,0.4,0,0.4z M89.6,81.4c0,5-4.1,9.1-9.1,9.1h-53
		c-5,0-9.1-4.1-9.1-9.1v-53c0-5,4.1-9.1,9.1-9.1h53c5,0,9.1,4.1,9.1,9.1V81.4z"/>
	<path fill="#FFFFFF" d="M76.2,55.5c0,11.9-9.9,21.5-22.2,21.5c-12.2,0-22.2-9.6-22.2-21.5c0-2.1,0.3-4.2,0.9-6.1h-6.5v30.1
		c0,1.6,1.3,2.8,2.8,2.8h49.6c1.6,0,2.8-1.3,2.8-2.8V49.4h-6.3C75.9,51.3,76.2,53.4,76.2,55.5z"/>
</g>
</svg>
