<?xml version="1.0" encoding="utf-8"?>
<!-- Generator: Adobe Illustrator 20.1.0, SVG Export Plug-In . SVG Version: 6.00 Build 0)  -->
<svg version="1.1" id="Layer_1" xmlns="http://www.w3.org/2000/svg" xmlns:xlink="http://www.w3.org/1999/xlink" x="0px" y="0px"
	 width="108px" height="109px" viewBox="0 0 108 109" enable-background="new 0 0 108 109" xml:space="preserve">
<g>
	<path fill="#FFFFFF" d="M47.5,81.5c-1,1.4-1.9,2-2.8,2c-0.6,0-0.9-0.3-1-1c0-0.1,0-0.7,0-1.7V63.1h-4.4v19.1c0,1.7,0.1,2.9,0.4,3.6
		c0.4,1.2,1.4,1.8,2.8,1.8c1.6,0,3.3-1,5-3v2.6h4.4V63.1h-4.4V81.5z"/>
	<path fill="#FFFFFF" d="M64.5,62.8c-1.6,0-3.1,0.9-4.5,2.6V54.9h-4.4v32.4H60v-2.3c1.5,1.8,3,2.7,4.5,2.7c1.7,0,2.9-0.9,3.5-2.7
		c0.3-1,0.4-2.6,0.4-4.9v-9.6c0-2.3-0.1-3.9-0.4-4.8C67.4,63.7,66.3,62.8,64.5,62.8z M64.1,80.3c0,2.2-0.6,3.3-1.9,3.3
		c-0.7,0-1.4-0.3-2.2-1.1V67.8c0.7-0.7,1.5-1.1,2.2-1.1c1.3,0,1.9,1.1,1.9,3.3V80.3z"/>
	<polygon fill="#FFFFFF" points="23.4,59.4 28.6,59.4 28.6,87.2 33.4,87.2 33.4,59.4 38.7,59.4 38.7,54.9 23.4,54.9 	"/>
	<path fill="#FFFFFF" d="M0,0v108.1c21.2,0,91.9,0,108,0V0C91.4,0,21.7,0,0,0z M63.3,17.7h4.4v17.9c0,1,0,1.6,0.1,1.7
		c0.1,0.7,0.4,1,1,1c0.9,0,1.8-0.7,2.8-2.1V17.7H76V42h-4.4v-2.7c-1.8,2-3.4,3-5,3c-1.4,0-2.4-0.6-2.8-1.8c-0.2-0.7-0.4-1.9-0.4-3.6
		V17.7z M46.7,25.6c0-2.6,0.4-4.5,1.4-5.7c1.2-1.7,2.9-2.5,5.1-2.5c2.2,0,3.9,0.8,5.1,2.5c0.9,1.2,1.4,3.1,1.4,5.7v8.5
		c0,2.6-0.4,4.5-1.4,5.7c-1.2,1.7-2.9,2.5-5.1,2.5c-2.2,0-3.9-0.8-5.1-2.5c-0.9-1.2-1.4-3.1-1.4-5.7V25.6z M34.9,9.3l3.5,12.8
		l3.3-12.8h4.9l-5.9,19.4V42h-4.9V28.8c-0.4-2.3-1.4-5.8-3-10.3c-1-3-2.1-6.1-3.1-9.1H34.9z M89.1,88.7c-0.9,3.8-4,6.7-7.8,7.1
		c-9,1-18,1-27.1,1c-9,0-18.1,0-27.1-1c-3.8-0.4-6.9-3.3-7.8-7.1c-1.3-5.5-1.3-11.4-1.3-17.1c0-5.6,0-11.6,1.3-17.1
		c0.9-3.8,4-6.7,7.8-7.1c9-1,18-1,27.1-1c9,0,18.1,0,27.1,1c3.8,0.4,6.9,3.3,7.8,7.1c1.3,5.5,1.3,11.4,1.3,17.1
		C90.3,77.2,90.3,83.2,89.1,88.7z"/>
	<path fill="#FFFFFF" d="M53.2,38.3c1.4,0,2.1-1.1,2.1-3.4V24.7c0-2.3-0.7-3.4-2.1-3.4c-1.4,0-2.1,1.1-2.1,3.4V35
		C51.1,37.2,51.8,38.3,53.2,38.3z"/>
	<path fill="#FFFFFF" d="M78.4,62.8c-2.2,0-4,0.8-5.2,2.5c-0.9,1.2-1.3,3.1-1.3,5.7v8.4c0,2.6,0.5,4.5,1.4,5.7
		c1.3,1.6,3,2.5,5.3,2.5c2.3,0,4.1-0.9,5.3-2.6c0.5-0.8,0.9-1.7,1-2.6c0-0.4,0.1-1.4,0.1-2.8v-0.6h-4.5c0,1.8-0.1,2.7-0.1,3
		c-0.2,1.2-0.9,1.8-2,1.8c-1.5,0-2.2-1.1-2.2-3.3V76h8.7v-5c0-2.6-0.4-4.5-1.4-5.7C82.4,63.6,80.6,62.8,78.4,62.8z M80.6,72.3h-4.4
		v-2.2c0-2.2,0.7-3.3,2.2-3.3c1.4,0,2.2,1.1,2.2,3.3V72.3z"/>
</g>
</svg>
