<?xml version="1.0" encoding="utf-8"?>
<!-- Generator: Adobe Illustrator 20.1.0, SVG Export Plug-In . SVG Version: 6.00 Build 0)  -->
<svg version="1.1" id="Layer_1" xmlns="http://www.w3.org/2000/svg" xmlns:xlink="http://www.w3.org/1999/xlink" x="0px" y="0px"
	 width="108px" height="109px" viewBox="0 0 108 109" enable-background="new 0 0 108 109" xml:space="preserve">
<path fill="#FFFFFF" d="M-0.1,0.2v108.1h108.2V0.2H-0.1z M82.7,39.5c0,0.6,0,1.3,0,1.9c0,19.5-14.9,42.1-42.1,42.1
	c-8.4,0-16.1-2.4-22.7-6.6c1.2,0.1,2.3,0.2,3.5,0.2c6.9,0,13.3-2.4,18.4-6.3c-6.5-0.1-11.9-4.4-13.8-10.3c0.9,0.2,1.8,0.3,2.8,0.3
	c1.3,0,2.7-0.2,3.9-0.5c-6.8-1.4-11.9-7.3-11.9-14.5c0-0.1,0-0.1,0-0.2c2,1.1,4.3,1.8,6.7,1.9c-4-2.7-6.6-7.2-6.6-12.3
	c0-2.7,0.7-5.3,2-7.4c7.3,9,18.2,14.8,30.5,15.5c-0.3-1.1-0.4-2.2-0.4-3.4c0-8.2,6.6-14.8,14.8-14.8c4.3,0,8.1,1.8,10.8,4.7
	c3.4-0.7,6.5-1.9,9.4-3.6c-1.1,3.5-3.5,6.4-6.5,8.2c3-0.4,5.8-1.2,8.5-2.3C88.1,34.8,85.6,37.4,82.7,39.5z"/>
</svg>
